<svg width="25" height="24" viewBox="0 0 25 24" fill="none" xmlns="http://www.w3.org/2000/svg">
<path d="M12.5 0C10.9241 0 9.36371 0.318095 7.9078 0.936124C6.45189 1.55415 5.12902 2.46001 4.01472 3.60198C1.76428 5.90829 0.5 9.03631 0.5 12.2979C0.5 17.7336 3.944 22.3453 8.708 23.981C9.308 24.0793 9.5 23.6981 9.5 23.3661V21.2877C6.176 22.0256 5.468 19.6398 5.468 19.6398C4.916 18.2132 4.136 17.832 4.136 17.832C3.044 17.0695 4.22 17.0941 4.22 17.0941C5.42 17.1802 6.056 18.3608 6.056 18.3608C7.1 20.2301 8.864 19.6767 9.548 19.3815C9.656 18.5822 9.968 18.0411 10.304 17.7336C7.64 17.4262 4.844 16.3685 4.844 11.683C4.844 10.318 5.3 9.22344 6.08 8.35029C5.96 8.04284 5.54 6.76386 6.2 5.10364C6.2 5.10364 7.208 4.77159 9.5 6.35803C10.448 6.08747 11.48 5.9522 12.5 5.9522C13.52 5.9522 14.552 6.08747 15.5 6.35803C17.792 4.77159 18.8 5.10364 18.8 5.10364C19.46 6.76386 19.04 8.04284 18.92 8.35029C19.7 9.22344 20.156 10.318 20.156 11.683C20.156 16.3808 17.348 17.4139 14.672 17.7213C15.104 18.1025 15.5 18.8527 15.5 19.9964V23.3661C15.5 23.6981 15.692 24.0916 16.304 23.981C21.068 22.333 24.5 17.7336 24.5 12.2979C24.5 10.6829 24.1896 9.08376 23.5866 7.59171C22.9835 6.09966 22.0996 4.74395 20.9853 3.60198C19.871 2.46001 18.5481 1.55415 17.0922 0.936124C15.6363 0.318095 14.0759 0 12.5 0Z" fill="url(#paint0_linear_2376_748)"/>
<defs>
<linearGradient id="paint0_linear_2376_748" x1="12.5" y1="0" x2="12.5" y2="24" gradientUnits="userSpaceOnUse">
<stop stop-color="#BB000E"/>
<stop offset="1" stop-color="#550006"/>
</linearGradient>
</defs>
</svg>
